<svg xmlns="http://www.w3.org/2000/svg" version="1.1" xmlns:xlink="http://www.w3.org/1999/xlink" xmlns:svgjs="http://svgjs.dev/svgjs" width="2000" height="398" viewBox="0 0 2000 398"><g transform="matrix(1,0,0,1,-1.2121212121212466,-1.492592918381348)"><svg viewBox="0 0 396 79" data-background-color="#edeae0" preserveAspectRatio="xMidYMid meet" height="398" width="2000" xmlns="http://www.w3.org/2000/svg" xmlns:xlink="http://www.w3.org/1999/xlink"><g id="tight-bounds" transform="matrix(1,0,0,1,0.2400000000000091,0.29626844359830784)"><svg viewBox="0 0 395.52 78.40746311280341" height="78.40746311280341" width="395.52"><g><svg viewBox="0 0 395.52 78.40746311280341" height="78.40746311280341" width="395.52"><g><svg viewBox="0 0 395.52 78.40746311280341" height="78.40746311280341" width="395.52"><g><svg viewBox="0 0 395.52 78.40746311280341" height="78.40746311280341" width="395.52"><g id="textblocktransform"><svg viewBox="0 0 395.52 78.40746311280341" height="78.40746311280341" width="395.52" id="textblock"><g><svg viewBox="0 0 395.52 78.40746311280341" height="78.40746311280341" width="395.52"><g transform="matrix(1,0,0,1,0,0)"><svg width="395.52" viewBox="-8.2 -35.9 210.07999999999998 41.65" height="78.40746311280341" data-palette-color="#bbb3db"><path d="M21.35-0.7L21.15 0.4Q18.2 0 14.58 0 10.95 0 9.4 0.2L9.4 0.2 9.2-0.5Q9.8-0.7 10.35-1.13 10.9-1.55 10.9-2.05L10.9-2.05Q10.9-5.7 4.25-26.45L4.25-26.45Q3.65-28.35 3.05-29.8L3.05-29.8Q-2.8-29.8-4.45-28.2L-4.45-28.2Q-4.8-27.5-4.8-26-4.8-24.5-4.3-23.95L-4.3-23.95-4.35-23.6Q-5.6-22.85-6.85-21.5L-6.85-21.5Q-7.45-21.55-7.83-22-8.2-22.45-8.2-23.05L-8.2-23.05Q-8.2-25.5-5.25-28.9-2.3-32.3 0.25-33.2L0.25-33.2Q0.65-33.2 3.85-32.88 7.05-32.55 8.88-32.55 10.7-32.55 12.25-32.85L12.25-32.85 12.45-31.6Q10.85-31 8.2-30.3L8.2-30.3Q8.7-26.05 10.83-18.13 12.95-10.2 15.35-3.45L15.35-3.45Q19.55-12.75 20.98-17.57 22.4-22.4 22.4-25.9L22.4-25.9Q22.4-30.6 19.9-32.05L19.9-32.05 20.1-32.75Q21.65-32.55 25.08-32.55 28.5-32.55 31.45-32.95L31.45-32.95 31.65-31.7Q29.4-31 26.85-30.65L26.85-30.65Q27.1-28.9 27.1-27.75L27.1-27.75Q27.1-23.35 24.93-18.3 22.75-13.25 16.55-1.75L16.55-1.75Q19.1-1.4 21.35-0.7L21.35-0.7ZM40.85-30.8L40.85-30.8Q40.3-27.05 40.3-16.8 40.3-6.55 40.95-1.75L40.95-1.75Q43.6-1.5 46.45-0.8L46.45-0.8 46.3 0.4Q42.6 0 38.27 0 33.95 0 31.3 0.4L31.3 0.4 31.1-0.85Q33.35-1.55 35.9-1.9L35.9-1.9Q36.45-6 36.45-14.8L36.45-14.8 36.45-17.75Q36.45-25.85 35.8-30.65L35.8-30.65Q33.25-31 31-31.7L31-31.7 31.2-32.95Q33.85-32.55 38.17-32.55 42.5-32.55 46.2-32.95L46.2-32.95 46.35-31.75Q43.5-31.05 40.85-30.8ZM72.95-7.6L72.95-14.8Q72.95-23.35 72.2-27.33 71.45-31.3 69.34-32.05L69.34-32.05 69.55-32.75Q71.09-32.55 74.59-32.55 78.09-32.55 81.05-32.95L81.05-32.95 81.19-31.8Q77.65-30.95 76.25-30.8L76.25-30.8Q75.59-25.9 75.59-17.75L75.59-17.75 75.59-14.8Q75.59-5.45 76.25-1.75L76.25-1.75Q78.8-1.45 81.05-0.85L81.05-0.85 80.84 0.4Q78.2 0 75.52 0 72.84 0 71.2 0.15L71.2 0.15Q71.2-1.5 67.95-7.2 64.7-12.9 56.15-26.25L56.15-26.25 55.95-26.15 55.95-17.75Q55.95-5.5 57.8-1.75L57.8-1.75Q60.55-1.5 63.25-0.8L63.25-0.8 63.15 0.4Q59.45 0 55.12 0 50.8 0 48.15 0.4L48.15 0.4 47.95-0.85Q50.2-1.55 52.75-1.9L52.75-1.9Q53.3-6 53.3-14.8L53.3-14.8 53.3-17.75Q53.3-24.8 52.7-29.8L52.7-29.8Q46.8-29.8 45.15-28.2L45.15-28.2Q44.8-27.5 44.8-26 44.8-24.5 45.3-23.95L45.3-23.95 45.25-23.6Q44-22.85 42.75-21.5L42.75-21.5Q42.15-21.55 41.77-22 41.4-22.45 41.4-23.05L41.4-23.05Q41.4-25.5 44.34-28.9 47.3-32.3 49.84-33.2L49.84-33.2Q50.45-33.15 53.22-32.85 56-32.55 57.8-32.55 59.59-32.55 61.15-32.85L61.15-32.85 61.34-31.6Q59.3-30.75 59.3-29.95L59.3-29.95Q59.55-28.6 62.15-24.28 64.75-19.95 72.75-7.5L72.75-7.5 72.95-7.6ZM90.99-1.75Q91.89-0.25 93.52 0.73 95.14 1.7 97.32 1.7 99.49 1.7 101.72 0.43 103.94-0.85 105.44-2.75L105.44-2.75 106.14-2.05Q102.49 3.65 96.24 5.75L96.24 5.75Q91.94 5.75 89.19 3.55 86.44 1.35 85.32-2.1 84.19-5.55 84.19-10.6 84.19-15.65 85.47-20.18 86.74-24.7 89.89-28.33 93.04-31.95 97.74-33.3L97.74-33.3Q102.79-33.3 108.04-32.35L108.04-32.35 107.99-31.25Q106.69-31.25 105.59-30.8L105.59-30.8Q104.34-27.85 103.94-23.75L103.94-23.75 102.69-23.75Q102.24-26.1 102.24-28.25L102.24-28.25Q99.59-29.7 96.42-29.7 93.24-29.7 91.19-27.8L91.19-27.8Q88.64-22.65 88.64-14.55L88.64-14.55Q88.64-5.5 90.99-1.75L90.99-1.75ZM126.69-28.3L126.69-28.3Q124.29-29.7 120.99-29.7 117.69-29.7 115.64-28L115.64-28Q115.59-27.3 115.59-26.65L115.59-26.65Q115.59-18.65 124.14-18.65L124.14-18.65 123.89-16.8 123.29-16.8Q119.34-16.8 116.77-15.23 114.19-13.65 114.19-10.15 114.19-6.65 116.59-4.73 118.99-2.8 122.24-2.8 125.49-2.8 127.34-4L127.34-4Q127.69-4.7 127.69-6.2 127.69-7.7 127.19-8.25L127.19-8.25 127.24-8.6Q128.49-9.35 129.74-10.7L129.74-10.7Q130.34-10.65 130.72-10.2 131.09-9.75 131.09-9.15L131.09-9.15Q131.09-6.1 128.22-3.23 125.34-0.35 121.94 0.75L121.94 0.75Q116.59 0.75 113.04-1.85 109.49-4.45 109.49-9.25L109.49-9.25Q109.49-12.7 112.39-15 115.29-17.3 118.99-17.3L118.99-17.3 118.99-17.5Q115.59-17.7 113.32-19.4 111.04-21.1 111.04-24.1L111.04-24.1Q112.84-27.3 115.82-29.85 118.79-32.4 122.19-33.3L122.19-33.3Q125.74-33.3 129.19-32.35L129.19-32.35Q129.99-32.75 131.24-33.9L131.24-33.9 132.29-33.2Q128.99-29.2 128.24-23.65L128.24-23.65 126.94-23.65Q126.94-26.4 126.69-28.3ZM158.79-7.6L158.79-14.8Q158.79-23.35 158.04-27.33 157.29-31.3 155.19-32.05L155.19-32.05 155.39-32.75Q156.94-32.55 160.44-32.55 163.94-32.55 166.89-32.95L166.89-32.95 167.04-31.8Q163.49-30.95 162.09-30.8L162.09-30.8Q161.44-25.9 161.44-17.75L161.44-17.75 161.44-14.8Q161.44-5.45 162.09-1.75L162.09-1.75Q164.64-1.45 166.89-0.85L166.89-0.85 166.69 0.4Q164.04 0 161.36 0 158.69 0 157.04 0.15L157.04 0.15Q157.04-1.5 153.79-7.2 150.54-12.9 141.99-26.25L141.99-26.25 141.79-26.15 141.79-17.75Q141.79-5.5 143.64-1.75L143.64-1.75Q146.39-1.5 149.09-0.8L149.09-0.8 148.99 0.4Q145.29 0 140.96 0 136.64 0 133.99 0.4L133.99 0.4 133.79-0.85Q136.04-1.55 138.59-1.9L138.59-1.9Q139.14-6 139.14-14.8L139.14-14.8 139.14-17.75Q139.14-24.8 138.54-29.8L138.54-29.8Q132.64-29.8 130.99-28.2L130.99-28.2Q130.64-27.5 130.64-26 130.64-24.5 131.14-23.95L131.14-23.95 131.09-23.6Q129.84-22.85 128.59-21.5L128.59-21.5Q127.99-21.55 127.61-22 127.24-22.45 127.24-23.05L127.24-23.05Q127.24-25.5 130.19-28.9 133.14-32.3 135.69-33.2L135.69-33.2Q136.29-33.15 139.06-32.85 141.84-32.55 143.64-32.55 145.44-32.55 146.99-32.85L146.99-32.85 147.19-31.6Q145.14-30.75 145.14-29.95L145.14-29.95Q145.39-28.6 147.99-24.28 150.59-19.95 158.59-7.5L158.59-7.5 158.79-7.6ZM174.24-33.3Q177.69-33.15 182.16-32.7 186.64-32.25 188.54-32.25 190.44-32.25 191.39-32.55L191.39-32.55Q193.69-34.75 194.64-35.9L194.64-35.9 195.44-35.3Q192.79-31.85 192.24-28.1L192.24-28.1Q187.29-29.45 183.19-29.75L183.19-29.75Q182.84-24.3 182.84-15.43 182.84-6.55 183.49-1.75L183.49-1.75Q185.99-1.5 188.99-0.8L188.99-0.8 188.84 0.4Q185.14 0 180.81 0 176.49 0 173.84 0.4L173.84 0.4 173.64-0.85Q175.89-1.55 178.44-1.9L178.44-1.9Q178.99-6 178.99-14.8L178.99-14.8 178.99-17.75Q178.99-22.7 178.39-29.9L178.39-29.9 177.09-29.9Q171.19-29.9 169.54-28.3L169.54-28.3Q169.19-27.6 169.19-26.1 169.19-24.6 169.69-24.05L169.69-24.05 169.64-23.7Q168.39-22.95 167.14-21.6L167.14-21.6Q166.54-21.65 166.16-22.1 165.79-22.55 165.79-23.15L165.79-23.15Q165.79-25.6 168.74-29 171.69-32.4 174.24-33.3L174.24-33.3ZM201.88-2.3L201.88-2.3Q201.53-1.65 200.66-0.65 199.78 0.35 199.18 0.75L199.18 0.75Q198.58 0.35 197.71-0.65 196.83-1.65 196.48-2.3L196.48-2.3Q196.78-2.9 197.63-3.68 198.48-4.45 199.18-4.8L199.18-4.8Q199.83-4.4 200.68-3.63 201.53-2.85 201.88-2.3Z" opacity="1" transform="matrix(1,0,0,1,0,0)" fill="#000000" class="wordmark-text-0" data-fill-palette-color="primary" id="text-0"></path></svg></g></svg></g></svg></g></svg></g><g></g></svg></g></svg></g><defs></defs></svg><rect width="395.52" height="78.40746311280341" fill="none" stroke="none" visibility="hidden"></rect></g></svg></g></svg>